<?xml version="1.0" standalone="no"?>
<!DOCTYPE svg PUBLIC "-//W3C//DTD SVG 20010904//EN"
 "http://www.w3.org/TR/2001/REC-SVG-20010904/DTD/svg10.dtd">
<svg version="1.0" xmlns="http://www.w3.org/2000/svg"
 width="423.000000pt" height="423.000000pt" viewBox="0 0 423.000000 423.000000"
 preserveAspectRatio="xMidYMid meet">

<g transform="translate(0.000000,423.000000) scale(0.100000,-0.100000)"
fill="#000000" stroke="none">
<path d="M2235 4026 c-37 -7 -88 -27 -133 -53 l-73 -43 -57 20 c-40 14 -82 20
-147 20 -82 0 -96 -3 -154 -33 -78 -40 -176 -122 -190 -159 -9 -26 -13 -27
-54 -22 -24 4 -67 1 -95 -5 -65 -14 -191 -72 -192 -88 0 -7 -5 -13 -11 -13
-13 0 -80 -69 -120 -123 -15 -21 -40 -71 -55 -110 -33 -89 -34 -90 -105 -132
-66 -38 -160 -130 -194 -190 -34 -59 -66 -158 -81 -255 -7 -47 -16 -103 -19
-125 -9 -58 -44 -173 -55 -180 -5 -3 -20 -29 -34 -58 -45 -92 -62 -116 -123
-170 -97 -87 -118 -99 -165 -96 -24 2 -43 -1 -45 -8 -6 -17 37 -43 72 -43 16
0 53 -6 80 -13 67 -18 101 -14 163 17 36 18 53 22 58 14 4 -6 8 -93 8 -192 1
-100 4 -188 7 -196 3 -8 13 -31 22 -50 l15 -35 -28 -8 c-109 -29 -198 -247
-169 -415 6 -37 16 -73 22 -80 5 -7 19 -30 31 -52 24 -45 105 -150 116 -150 4
0 31 -23 61 -51 74 -70 135 -120 151 -123 7 -1 39 -10 70 -20 51 -17 58 -22
58 -45 0 -14 9 -37 20 -51 11 -14 20 -28 20 -32 0 -11 26 -42 115 -134 79 -81
92 -90 285 -190 14 -7 39 -15 57 -18 17 -4 71 -20 120 -37 48 -18 97 -33 108
-34 11 -2 38 -8 60 -13 22 -6 65 -14 95 -17 30 -3 99 -15 152 -26 117 -23 387
-39 478 -29 114 14 176 29 400 97 94 28 103 31 110 30 3 0 23 11 45 25 22 14
57 31 78 39 20 7 37 17 37 21 0 4 7 8 15 8 8 0 23 9 32 20 10 11 21 20 26 20
8 0 128 78 137 90 3 3 31 26 64 49 79 58 130 111 147 151 46 111 64 134 132
170 37 19 77 44 89 55 13 11 57 48 98 81 90 74 171 159 204 217 52 91 36 281
-35 402 -31 55 -90 102 -138 111 -37 8 -38 20 -12 95 22 65 32 158 32 294 -1
167 -6 226 -27 305 -3 12 8 15 53 17 106 4 153 21 212 78 31 31 51 57 47 64
-4 6 -27 11 -52 11 -132 0 -302 176 -436 453 -27 54 -48 102 -48 107 0 26
-229 210 -261 210 -4 0 -31 48 -60 107 -55 112 -91 154 -184 217 -53 36 -163
85 -205 92 -69 11 -142 9 -171 -5 -29 -14 -33 -13 -45 5 -130 185 -248 243
-429 210z m-1230 -663 c-2 -10 -4 -21 -4 -25 -1 -5 -8 -8 -16 -8 -14 0 -13 3
1 25 19 30 23 31 19 8z m402 -195 c-3 -8 -6 -5 -6 6 -1 11 2 17 5 13 3 -3 4
-12 1 -19z m1293 -141 c0 -5 -4 -5 -10 -2 -5 3 -10 14 -10 23 0 15 2 15 10 2
5 -8 10 -19 10 -23z m87 1 c-3 -7 -5 -2 -5 12 0 14 2 19 5 13 2 -7 2 -19 0
-25z m790 -40 c-3 -8 -6 -5 -6 6 -1 11 2 17 5 13 3 -3 4 -12 1 -19z m-867 -7
c0 -10 -7 -21 -15 -25 -9 -3 -15 0 -15 10 0 8 5 12 10 9 6 -3 10 1 10 9 0 9 2
16 5 16 3 0 5 -9 5 -19z m70 -28 c0 -3 -9 2 -20 12 -11 10 -20 22 -20 27 0 4
9 -1 20 -12 11 -11 20 -23 20 -27z m-1280 -31 c7 -61 -5 -88 -31 -71 -11 7
-11 9 4 9 10 0 17 8 17 20 0 11 -7 20 -16 20 -10 0 -12 4 -7 13 8 13 9 18 11
56 3 41 16 14 22 -47z m2104 33 c-4 -8 -7 -15 -9 -15 -2 0 -5 7 -9 15 -3 9 0
15 9 15 9 0 12 -6 9 -15z m-849 -15 c3 -5 1 -10 -4 -10 -6 0 -11 5 -11 10 0 6
2 10 4 10 3 0 8 -4 11 -10z m-2035 -4 c0 -2 -7 -7 -16 -10 -8 -3 -12 -2 -9 4
6 10 25 14 25 6z m1990 -16 c0 -4 -7 -13 -15 -20 -12 -10 -15 -9 -15 7 0 11 7
20 15 20 8 0 15 -4 15 -7z m67 -12 c-3 -8 -6 -5 -6 6 -1 11 2 17 5 13 3 -3 4
-12 1 -19z m887 -50 c19 -26 21 -48 5 -48 -6 0 -9 7 -5 15 3 8 2 15 -3 15 -10
0 -41 62 -41 82 0 7 7 1 14 -14 8 -15 22 -38 30 -50z m-2229 14 c-3 -3 -11 0
-18 7 -9 10 -8 11 6 5 10 -3 15 -9 12 -12z m40 8 c3 -5 1 -10 -4 -10 -6 0 -11
5 -11 10 0 6 2 10 4 10 3 0 8 -4 11 -10z m1262 -27 c-3 -10 -5 -4 -5 12 0 17
2 24 5 18 2 -7 2 -21 0 -30z m-2050 2 c-12 -9 -16 -20 -12 -37 3 -13 2 -35 -4
-48 -5 -14 -10 -20 -11 -15 -1 6 -3 19 -5 30 -6 26 13 82 28 88 20 7 23 -4 4
-18z m708 15 c-3 -5 -2 -10 4 -10 6 0 8 -7 4 -16 -4 -10 -9 -12 -16 -5 -9 9
-3 41 8 41 4 0 3 -4 0 -10z m1377 -22 c-8 -8 -9 -4 -5 13 4 13 8 18 11 10 2
-7 -1 -18 -6 -23z m-86 -13 c1 -8 -4 -19 -12 -26 -10 -8 -14 -8 -14 0 0 6 6
11 13 12 9 0 9 2 0 5 -7 3 -9 12 -6 20 6 17 16 11 19 -11z m-1170 -20 c-1 -28
-5 -35 -21 -35 -17 0 -17 2 -5 10 10 6 11 10 3 10 -7 0 -13 5 -13 11 0 5 4 8
9 4 5 -3 12 4 16 15 9 29 12 25 11 -15z m-49 3 c-3 -8 -6 -5 -6 6 -1 11 2 17
5 13 3 -3 4 -12 1 -19z m2150 0 c-3 -8 -6 -5 -6 6 -1 11 2 17 5 13 3 -3 4 -12
1 -19z m-2197 -20 c0 -4 -4 -8 -9 -8 -6 0 -12 4 -15 8 -3 5 1 9 9 9 8 0 15 -4
15 -9z m2290 -30 c0 -19 -16 -5 -17 14 -2 18 0 20 7 8 5 -8 10 -18 10 -22z
m-220 13 c0 -5 3 -16 6 -25 4 -12 0 -16 -16 -16 -16 0 -20 4 -16 16 3 9 6 20
6 25 0 5 5 9 10 9 6 0 10 -4 10 -9z m-1413 -33 c-3 -7 -5 -2 -5 12 0 14 2 19
5 13 2 -7 2 -19 0 -25z m123 -28 c0 -5 -7 -7 -15 -4 -8 4 -15 8 -15 10 0 2 7
4 15 4 8 0 15 -4 15 -10z m397 -257 c-9 -59 -20 -92 -28 -87 -5 3 -6 -1 -4 -8
3 -8 -8 -35 -25 -61 -43 -63 -33 -78 40 -57 39 11 134 93 150 131 10 23 10 22
7 -8 -2 -18 1 -29 5 -26 5 3 8 -1 7 -8 -1 -8 0 -21 3 -29 3 -8 13 -40 22 -70
10 -30 20 -61 23 -67 2 -8 -3 -13 -12 -13 -16 0 -67 -19 -107 -41 -10 -5 -23
-9 -30 -9 -25 0 -48 -33 -48 -71 0 -29 6 -43 30 -63 31 -25 81 -40 116 -34 10
2 43 18 72 36 29 17 55 32 59 32 3 0 21 11 39 25 18 14 37 25 43 25 6 0 11 4
11 10 0 5 9 14 20 20 11 6 19 7 18 3 -5 -24 31 -213 42 -213 25 0 79 174 80
257 l1 28 13 -30 c25 -58 29 -140 10 -225 -9 -44 -22 -87 -28 -95 -7 -9 -44
-18 -105 -25 -52 -6 -99 -14 -105 -19 -6 -5 -22 -12 -36 -16 -68 -19 -156 -72
-220 -132 -77 -72 -89 -103 -40 -103 24 0 30 -4 30 -22 1 -38 33 -91 66 -110
17 -10 51 -22 77 -27 37 -7 53 -4 89 13 128 64 163 114 163 238 0 90 -7 85
129 93 44 3 93 7 110 10 17 3 53 -1 79 -9 68 -21 97 -5 65 35 -35 42 -85 58
-190 61 l-68 2 26 41 c13 22 39 70 57 107 18 37 35 68 38 68 4 0 12 -13 19
-30 7 -16 15 -30 19 -30 4 0 22 -29 40 -65 19 -36 52 -83 74 -105 l41 -39 -11
-48 c-17 -73 -59 -180 -78 -199 -27 -28 -2 -41 37 -20 18 10 51 27 73 39 22
11 47 27 55 35 23 24 24 -2 1 -70 -24 -76 -50 -214 -57 -305 -2 -38 -10 -102
-16 -143 -6 -41 -12 -87 -12 -101 -1 -15 -21 -66 -45 -115 -36 -72 -60 -103
-127 -169 -106 -103 -157 -145 -221 -181 -29 -16 -53 -32 -53 -36 0 -12 -194
-107 -281 -138 -41 -15 -109 -33 -150 -40 -41 -7 -82 -17 -91 -22 -33 -16
-200 -27 -277 -18 -42 5 -112 11 -156 15 -44 3 -107 10 -140 15 -138 21 -191
31 -210 39 -56 23 -153 51 -176 51 -31 0 -112 27 -157 52 -18 10 -39 18 -47
18 -8 0 -15 5 -15 10 0 6 -10 10 -22 10 -47 0 -214 135 -303 245 -29 36 -43
60 -51 90 -1 6 -18 64 -37 130 -19 66 -37 140 -40 165 -4 25 -8 56 -10 70 -6
42 -39 181 -58 249 -25 85 -25 88 17 56 29 -22 115 -54 147 -55 15 0 6 39 -23
92 -38 70 -56 129 -59 195 -2 45 2 55 29 83 16 17 30 34 30 38 0 4 20 30 45
57 41 46 93 138 110 193 4 13 9 21 11 19 9 -9 -25 -145 -46 -187 -24 -46 -24
-45 6 -54 13 -4 39 6 80 30 91 55 99 63 206 234 28 44 70 143 73 170 0 3 8 26
18 52 14 35 16 52 8 67 -6 11 -8 27 -5 35 5 14 10 12 30 -11 14 -16 31 -35 39
-44 8 -9 15 -23 15 -33 0 -10 5 -14 12 -10 8 5 9 0 5 -15 -3 -13 -3 -20 0 -17
9 8 74 -115 67 -126 -3 -4 -9 -6 -13 -4 -4 3 -43 -1 -86 -8 -84 -12 -102 -28
-74 -62 17 -21 103 -64 127 -64 10 0 22 -3 26 -7 3 -4 14 -8 24 -9 9 -2 18 -8
20 -13 2 -6 25 -11 50 -11 45 0 49 -2 98 -64 62 -75 158 -152 222 -176 26 -10
54 -21 63 -24 34 -14 29 15 -9 62 -22 26 -46 61 -54 77 -8 17 -23 44 -33 60
-15 25 -10 22 31 -16 74 -69 133 -113 194 -143 30 -16 76 -44 103 -62 49 -35
87 -44 87 -20 0 8 -9 33 -20 57 -16 37 -27 89 -17 89 1 0 24 -7 51 -15 45 -14
156 -12 156 3 0 2 -10 14 -23 26 -49 44 -150 201 -163 251 -6 23 -4 24 49 23
57 -2 118 26 137 62 13 23 4 30 -31 23 -31 -6 -119 14 -119 28 0 4 12 21 26
36 35 37 118 154 120 168 1 13 27 75 32 75 2 0 1 -12 -1 -27z m1157 -48 c-4
-8 -1 -15 5 -15 6 0 11 -4 11 -10 0 -5 -4 -10 -9 -10 -12 0 -23 29 -15 41 9
14 14 10 8 -6z m-853 -57 c26 -51 69 -170 64 -178 -2 -3 -22 -4 -44 -2 l-41 4
0 93 c0 51 -3 100 -6 109 -13 33 6 14 27 -26z m879 -48 c0 -5 -5 -10 -11 -10
-5 0 -7 5 -4 10 3 6 8 10 11 10 2 0 4 -4 4 -10z m-3208 -172 c-7 -7 -10 -5 -7
8 5 29 6 30 12 16 3 -8 1 -18 -5 -24z m3220 -114 c-5 -9 -8 -1 -9 23 -1 33 0
35 8 15 5 -13 5 -30 1 -38z m-3226 22 c0 -14 -5 -21 -9 -17 -4 4 -5 15 -1 24
9 24 12 21 10 -7z m3306 -358 c17 -18 35 -45 40 -60 6 -16 14 -28 18 -28 5 0
12 -26 16 -57 3 -32 9 -67 11 -78 15 -58 14 -153 0 -181 -20 -38 -119 -141
-182 -190 -27 -22 -65 -52 -83 -69 -71 -64 -142 -87 -142 -46 1 62 61 216 108
276 18 23 26 22 82 -10 16 -9 28 -11 34 -5 5 5 8 11 5 12 -71 44 -109 49 -132
16 -13 -19 -18 -20 -26 -9 -7 11 -12 4 -20 -27 -11 -38 -26 -60 -36 -50 -8 8
27 155 52 221 15 39 39 78 54 92 15 12 25 26 21 29 -3 4 2 4 12 0 13 -5 17 -4
12 4 -4 6 3 12 16 14 13 2 22 9 20 16 -2 10 2 10 18 2 19 -10 17 -14 -30 -59
-27 -26 -50 -54 -50 -61 0 -7 20 9 45 34 25 25 52 46 60 46 8 0 18 7 23 15 12
22 45 8 39 -16 -3 -11 -1 -19 4 -19 20 0 7 49 -21 79 -44 45 -95 44 -146 -4
-20 -19 -39 -34 -41 -32 -1 2 5 27 15 55 15 44 25 56 72 86 71 44 94 44 132 4z
m-3288 -52 c44 -30 58 -44 81 -83 21 -37 16 -50 -13 -34 -39 21 -80 13 -117
-23 -33 -33 -49 -86 -25 -86 6 0 10 8 10 18 0 10 5 23 11 29 22 22 159 -82
159 -120 0 -10 -14 -31 -32 -47 -17 -16 -29 -32 -26 -35 8 -9 40 12 61 41 25
34 8 85 -41 122 -20 15 -38 30 -40 35 -2 4 -10 7 -17 7 -7 0 -15 9 -18 19 -3
15 2 20 22 24 33 7 59 -7 96 -51 40 -48 71 -117 79 -177 17 -130 17 -130 7
-115 -6 8 -11 11 -11 6 0 -6 8 -19 18 -30 10 -12 24 -46 30 -76 6 -30 15 -79
21 -108 14 -69 14 -113 1 -92 -5 8 -10 12 -10 8 0 -13 -80 21 -134 57 -81 54
-208 183 -246 250 -31 55 -34 68 -36 155 -2 52 2 115 8 140 21 86 83 190 114
190 7 0 29 -11 48 -24z m2274 -105 c4 -40 -6 -52 -36 -44 -46 12 -35 88 12 81
16 -2 22 -11 24 -37z"/>
<path d="M1475 2331 c-3 -5 0 -13 6 -17 7 -4 9 -3 5 4 -3 5 0 13 6 15 9 4 10
6 1 6 -6 1 -14 -3 -18 -8z"/>
<path d="M1133 1713 c-100 -16 -149 -44 -159 -92 -8 -38 8 -54 43 -46 12 3 33
0 47 -6 22 -10 25 -18 24 -60 -3 -98 86 -169 210 -169 107 0 192 100 192 226
0 30 4 54 9 54 45 0 257 -64 281 -84 25 -22 77 -28 84 -10 8 22 10 20 -31 45
-21 13 -40 26 -43 29 -13 17 -125 61 -200 79 -169 41 -336 53 -457 34z m185
-204 c4 -39 -12 -55 -45 -43 -21 8 -27 16 -25 34 1 13 7 29 13 36 16 19 54 1
57 -27z"/>
<path d="M3205 1411 c-6 -6 -35 -16 -65 -24 -74 -19 -81 -42 -11 -35 50 5 103
32 103 53 -1 14 -16 17 -27 6z"/>
<path d="M1546 1351 c-29 -3 -51 -12 -54 -20 -3 -10 0 -11 14 -3 11 6 27 7 40
2 29 -11 104 8 83 21 -8 5 -18 8 -24 7 -5 -1 -32 -4 -59 -7z"/>
<path d="M2155 1013 c-69 -37 -205 -156 -205 -180 0 -35 33 -22 95 36 86 80
135 105 189 97 39 -7 139 -57 152 -77 20 -33 124 -75 124 -50 0 22 -108 103
-193 145 -101 50 -117 53 -162 29z"/>
<path d="M3691 1394 c-1 -23 6 -36 24 -48 39 -26 53 -18 19 12 -18 15 -34 36
-37 47 -3 14 -5 10 -6 -11z"/>
<path d="M3849 1332 c-8 -15 -20 -31 -26 -35 -7 -4 -13 -15 -13 -24 0 -24 47
22 55 54 9 35 1 38 -16 5z"/>
<path d="M518 1274 c-7 -6 28 -81 43 -89 19 -12 23 4 6 23 -10 10 -17 23 -17
28 -1 14 -26 44 -32 38z"/>
<path d="M670 1205 c-45 -26 -65 -33 -68 -24 -4 11 -22 2 -22 -10 0 -21 53
-18 80 5 31 27 50 30 68 12 14 -14 24 -7 14 8 -12 20 -46 24 -72 9z"/>
</g>
</svg>
